<svg xmlns="http://www.w3.org/2000/svg" width="420" height="420" viewBox="0 0 420 420"><circle cx="136.0" cy="63.4" r="0.97" fill="#fff" fill-opacity="0.30"/><circle cx="225.1" cy="153.6" r="0.41" fill="#fff" fill-opacity="0.61"/><circle cx="15.7" cy="182.1" r="0.42" fill="#fff" fill-opacity="0.31"/><circle cx="178.3" cy="347.3" r="0.47" fill="#fff" fill-opacity="0.41"/><circle cx="263.5" cy="398.0" r="0.90" fill="#fff" fill-opacity="0.53"/><circle cx="410.0" cy="19.6" r="1.17" fill="#fff" fill-opacity="0.45"/><circle cx="60.6" cy="49.5" r="0.64" fill="#fff" fill-opacity="0.82"/><circle cx="75.9" cy="244.3" r="0.96" fill="#fff" fill-opacity="0.51"/><circle cx="230.1" cy="26.4" r="0.41" fill="#fff" fill-opacity="0.39"/><circle cx="285.8" cy="179.6" r="0.65" fill="#fff" fill-opacity="0.66"/><circle cx="190.3" cy="125.9" r="1.10" fill="#fff" fill-opacity="0.74"/><circle cx="102.5" cy="241.3" r="0.85" fill="#fff" fill-opacity="0.86"/><circle cx="306.4" cy="120.9" r="1.28" fill="#fff" fill-opacity="0.33"/><circle cx="175.6" cy="318.0" r="0.49" fill="#fff" fill-opacity="0.59"/><circle cx="16.5" cy="280.7" r="1.08" fill="#fff" fill-opacity="0.65"/><circle cx="367.7" cy="131.8" r="1.01" fill="#fff" fill-opacity="0.67"/><circle cx="243.6" cy="191.6" r="1.15" fill="#fff" fill-opacity="0.91"/><circle cx="199.1" cy="278.9" r="0.41" fill="#fff" fill-opacity="0.74"/><circle cx="271.8" cy="417.1" r="1.13" fill="#fff" fill-opacity="0.45"/><circle cx="162.0" cy="280.8" r="0.37" fill="#fff" fill-opacity="0.57"/><circle cx="70.6" cy="49.2" r="0.41" fill="#fff" fill-opacity="0.79"/><circle cx="54.3" cy="104.0" r="0.72" fill="#fff" fill-opacity="0.86"/><circle cx="33.8" cy="188.7" r="0.87" fill="#fff" fill-opacity="0.87"/><circle cx="344.1" cy="362.9" r="0.61" fill="#fff" fill-opacity="0.54"/><circle cx="150.7" cy="371.4" r="1.26" fill="#fff" fill-opacity="0.36"/><circle cx="74.0" cy="97.4" r="0.57" fill="#fff" fill-opacity="0.59"/><circle cx="247.4" cy="110.4" r="0.35" fill="#fff" fill-opacity="0.54"/><circle cx="155.1" cy="237.9" r="1.26" fill="#fff" fill-opacity="0.73"/><circle cx="216.5" cy="259.4" r="0.99" fill="#fff" fill-opacity="0.29"/><circle cx="377.8" cy="327.6" r="1.18" fill="#fff" fill-opacity="0.81"/><circle cx="164.8" cy="167.6" r="0.45" fill="#fff" fill-opacity="0.69"/><circle cx="26.1" cy="28.3" r="0.55" fill="#fff" fill-opacity="0.36"/><circle cx="142.8" cy="22.1" r="0.35" fill="#fff" fill-opacity="0.36"/><circle cx="42.6" cy="152.7" r="0.37" fill="#fff" fill-opacity="0.86"/><circle cx="257.9" cy="62.4" r="0.59" fill="#fff" fill-opacity="0.49"/><circle cx="152.9" cy="51.6" r="1.16" fill="#fff" fill-opacity="0.95"/><circle cx="195.7" cy="203.2" r="0.43" fill="#fff" fill-opacity="0.32"/><circle cx="143.9" cy="111.2" r="1.14" fill="#fff" fill-opacity="0.36"/><circle cx="9.7" cy="399.4" r="0.85" fill="#fff" fill-opacity="0.35"/><circle cx="228.1" cy="11.4" r="0.85" fill="#fff" fill-opacity="0.93"/><circle cx="362.6" cy="292.4" r="0.60" fill="#fff" fill-opacity="0.51"/><circle cx="70.2" cy="324.2" r="0.86" fill="#fff" fill-opacity="0.80"/><circle cx="138.5" cy="93.7" r="1.12" fill="#fff" fill-opacity="0.94"/><circle cx="358.1" cy="338.6" r="1.13" fill="#fff" fill-opacity="0.77"/><circle cx="95.2" cy="217.4" r="0.69" fill="#fff" fill-opacity="0.27"/><circle cx="11.7" cy="117.4" r="0.60" fill="#fff" fill-opacity="0.73"/><circle cx="401.7" cy="187.8" r="1.24" fill="#fff" fill-opacity="0.94"/><circle cx="401.1" cy="153.1" r="0.56" fill="#fff" fill-opacity="0.41"/><circle cx="82.6" cy="85.8" r="0.94" fill="#fff" fill-opacity="0.88"/><circle cx="353.0" cy="201.4" r="0.97" fill="#fff" fill-opacity="0.81"/><circle cx="35.6" cy="277.4" r="1.21" fill="#fff" fill-opacity="0.80"/><circle cx="315.1" cy="200.8" r="0.52" fill="#fff" fill-opacity="0.80"/><circle cx="139.7" cy="336.3" r="1.27" fill="#fff" fill-opacity="0.53"/><circle cx="168.6" cy="397.7" r="1.04" fill="#fff" fill-opacity="0.37"/><circle cx="53.4" cy="63.5" r="1.21" fill="#fff" fill-opacity="0.81"/><circle cx="61.4" cy="347.1" r="1.28" fill="#fff" fill-opacity="0.71"/><circle cx="147.2" cy="230.4" r="0.47" fill="#fff" fill-opacity="0.26"/><circle cx="407.8" cy="272.9" r="0.85" fill="#fff" fill-opacity="0.90"/><circle cx="182.2" cy="366.1" r="1.13" fill="#fff" fill-opacity="0.40"/><circle cx="105.8" cy="123.0" r="0.58" fill="#fff" fill-opacity="0.66"/><circle cx="108.9" cy="176.0" r="0.47" fill="#fff" fill-opacity="0.89"/><circle cx="148.6" cy="192.4" r="0.90" fill="#fff" fill-opacity="0.88"/><circle cx="176.7" cy="385.4" r="0.83" fill="#fff" fill-opacity="0.62"/><circle cx="219.9" cy="7.9" r="0.77" fill="#fff" fill-opacity="0.38"/><circle cx="1.7" cy="335.7" r="0.51" fill="#fff" fill-opacity="0.58"/><circle cx="304.6" cy="233.7" r="0.66" fill="#fff" fill-opacity="0.61"/><circle cx="233.3" cy="329.4" r="0.45" fill="#fff" fill-opacity="0.64"/><circle cx="104.4" cy="116.3" r="1.08" fill="#fff" fill-opacity="0.61"/><circle cx="235.9" cy="319.2" r="1.22" fill="#fff" fill-opacity="0.56"/><circle cx="257.3" cy="212.3" r="0.84" fill="#fff" fill-opacity="0.73"/><path d="M191.1 218.2C192.0 222.3 192.0 222.3 196.1 223.2C192.0 224.1 192.0 224.1 191.1 228.1C190.2 224.1 190.2 224.1 186.2 223.2C190.2 222.3 190.2 222.3 191.1 218.2Z" fill="#fff" fill-opacity="0.9"/><path d="M384.8 282.8C385.9 287.8 385.9 287.8 391.0 288.9C385.9 290.0 385.9 290.0 384.8 295.0C383.7 290.0 383.7 290.0 378.7 288.9C383.7 287.8 383.7 287.8 384.8 282.8Z" fill="#fff" fill-opacity="0.9"/><path d="M385.1 109.6C386.0 113.9 386.0 113.9 390.3 114.8C386.0 115.7 386.0 115.7 385.1 120.0C384.2 115.7 384.2 115.7 379.9 114.8C384.2 113.9 384.2 113.9 385.1 109.6Z" fill="#fff" fill-opacity="0.9"/><path d="M385.5 340.7C386.2 343.9 386.2 343.9 389.4 344.6C386.2 345.3 386.2 345.3 385.5 348.6C384.8 345.3 384.8 345.3 381.6 344.6C384.8 343.9 384.8 343.9 385.5 340.7Z" fill="#fff" fill-opacity="0.9"/><path d="M60.2 183.4C60.8 186.4 60.8 186.4 63.9 187.1C60.8 187.7 60.8 187.7 60.2 190.8C59.5 187.7 59.5 187.7 56.4 187.1C59.5 186.4 59.5 186.4 60.2 183.4Z" fill="#fff" fill-opacity="0.9"/></svg>
